<svg width="82" height="110" xmlns="http://www.w3.org/2000/svg"><g fill="none" fill-rule="evenodd"><path d="M47.601 40.81l33.377 57.765a7.61 7.61 0 0 1 .001 7.618A7.622 7.622 0 0 1 74.377 110H7.623a7.622 7.622 0 0 1-6.602-3.807 7.61 7.61 0 0 1 .001-7.618L34.4 40.81a7.622 7.622 0 0 1 13.202 0zM45.25 60.485a4.606 4.606 0 0 0-4.602-4.909 4.613 4.613 0 0 0-4.601 4.91l1.447 22.261a3.164 3.164 0 0 0 3.154 2.957 3.164 3.164 0 0 0 3.155-2.957l1.447-22.262zm-9.404 34.079a4.782 4.782 0 0 0 1.542 3.561 4.79 4.79 0 0 0 3.677 1.247 4.86 4.86 0 0 0 4.416-5.065 4.861 4.861 0 0 0-4.868-4.632 4.84 4.84 0 0 0-4.767 4.889z" fill="#C0C7D1" fill-rule="nonzero"></path><path d="M45.99 13.463L42.246.224a.307.307 0 0 0-.31-.224.306.306 0 0 0-.29.25l-2.354 12.435-2.929-.535a.312.312 0 0 0-.283.092.298.298 0 0 0-.07.284l3.742 13.238a.307.307 0 0 0 .3.236.307.307 0 0 0 .3-.236l2.354-12.435 2.929.51a.312.312 0 0 0 .283-.092.298.298 0 0 0 .07-.284zM32.577 21.272l-5.362-4.243a.132.132 0 0 0-.165 0 .135.135 0 0 0-.037.164l2.726 5.662-1.311.65a.134.134 0 0 0 0 .223l5.357 4.243a.132.132 0 0 0 .165 0 .135.135 0 0 0 .037-.164l-2.745-5.672 1.31-.64a.134.134 0 0 0 .025-.223z" fill="#E8EAEE" fill-rule="nonzero"></path><path d="M58 19.17c-.596.816-5.6-2.87-6.19-2.05-.591.82 4.408 4.507 3.818 5.327-.59.82-5.6-2.871-6.196-2.05-.596.82 4.409 4.506 3.813 5.327-.596.82-5.6-2.872-6.196-2.051-.595.82 4.41 4.507 3.813 5.327M60 32.906c-.7.697-3.38-2.507-4.081-1.805-.7.703 1.98 3.908 1.28 4.605-.7.698-3.38-2.507-4.08-1.804-.327.325.076 1.19.532 2.098M22 32.316c.865.415 2.375-3.701 3.26-3.287.883.415-.661 4.527.203 4.942.865.414 2.376-3.702 3.26-3.287.403.194.29 1.18.137 2.225" stroke="#E8EAEE" stroke-width="2" stroke-linecap="round"></path></g></svg>
